<svg xmlns="http://www.w3.org/2000/svg" xmlns:xlink="http://www.w3.org/1999/xlink" fill="none" version="1.1" width="33.361087799072266" height="30.873239517211914" viewBox="0 0 33.361087799072266 30.873239517211914"><g><path d="M14.5244,2.02663C14.9377,0.79441,16.1039,-0.0262523,17.4033,0.000641828C18.7027,0.027536,19.8338,0.895745,20.1958,2.14401C20.5356,3.50317,19.9734,4.6152,18.4969,5.31331C18.135,5.42104,17.8694,5.73014,17.8173,6.10409L17.8173,8.48262L16.9091,8.48262L16.9091,5.87551C16.9091,5.6531,16.452,5.42452,16.2234,5.31331C14.753,4.51635,14.2094,3.38578,14.5244,2.02663ZM3.86124,19.5659C1.85561,19.5831,0.174054,18.055,0,16.0568C0,14.0243,1.58774,12.4365,3.86124,12.35L3.86124,19.5659ZM29.4998,19.5659L29.4998,12.35C31.5225,12.2621,33.2415,13.8134,33.3611,15.8344C33.3273,17.932,31.5973,19.6038,29.4998,19.5659ZM27.5785,9.72439L27.5785,22.0804C27.5785,23.2171,27.3499,23.4395,25.9846,23.5569L21.0051,23.5569C20.8877,23.5569,20.8877,23.5569,20.6653,23.6681L20.6653,25.3238L22.4817,25.3238C23.1612,25.3238,23.6122,25.6574,23.6122,26.337L23.6122,29.8461C23.6122,30.5256,23.1612,30.8654,22.4817,30.8654L10.7806,30.8654C10.1248,30.946,9.56682,30.3911,9.64382,29.7349L9.64382,26.337C9.64382,25.5462,9.98361,25.3238,10.7806,25.2064L12.356,25.2064L12.4733,25.0952L12.4733,23.4148L6.91316,23.4148C6.005,23.4148,5.67756,23.075,5.67756,22.2842L5.67756,9.60701C5.67756,8.70502,6.01735,8.47644,7.03672,8.47644L26.102,8.47644C27.3437,8.36524,27.5785,8.59382,27.5785,9.72439ZM13.7275,15.8344C13.6679,14.7699,12.7528,13.9575,11.6887,14.0243C10.6609,14.0032,9.80466,14.8073,9.76121,15.8344L9.76121,15.9456C9.79191,17.0409,10.7047,17.9039,11.7999,17.8731C12.8952,17.8424,13.7582,16.9297,13.7275,15.8344ZM11.7999,27.1772L11.7999,29.0985L21.6847,29.0985L21.6847,27.1772L11.7999,27.1772ZM23.7173,15.9456C23.7243,14.8767,22.8524,14.0104,21.7836,14.0243L21.6723,14.0243C20.607,13.9539,19.6898,14.7682,19.6336,15.8344C19.6835,16.92,20.5857,17.7702,21.6723,17.7558C22.7527,17.8682,23.6978,17.0316,23.7173,15.9456Z" fill="#4838DA" fill-opacity="1"/></g></svg>